<?xml version="1.0" encoding="utf-8"?>
<!-- Generator: Adobe Illustrator 15.1.0, SVG Export Plug-In . SVG Version: 6.00 Build 0)  -->
<!DOCTYPE svg PUBLIC "-//W3C//DTD SVG 1.1//EN" "http://www.w3.org/Graphics/SVG/1.1/DTD/svg11.dtd">
<svg version="1.1" id="Layer_1" xmlns="http://www.w3.org/2000/svg" xmlns:xlink="http://www.w3.org/1999/xlink" x="0px" y="0px"
	 width="782.592px" height="154.641px" viewBox="60.739 376.159 782.592 154.641"
	 enable-background="new 60.739 376.159 782.592 154.641" xml:space="preserve">
<path fill="#303160" d="M228.914,377.666l-10.157,37.906h-77.752l-4.963,18.522h70.645l-10.157,37.907h-70.646l-5.021,18.739h79.69
	l-10.157,37.907H60.739l40.456-150.981H228.914L228.914,377.666z"/>
<path fill="#303160" d="M295.771,377.666l11.83,78.83l54.075-78.83h107.073l-71.865,82.427l31.411,68.555h-97.812l22.161-82.704
	l-44.084,68.06h-32.736l-7.609-68.06l-22.161,82.704h-43.506l40.456-150.98L295.771,377.666L295.771,377.666z"/>
<path fill="#8DC63F" d="M464.182,417.726c-18.092,0-35.097,14.432-40.463,34.46c-5.425,20.246,3.789,34.892,21.88,34.892
	c10.77,0,26.126-6.678,38.862-17.231l20.607,30.801c-21.704,18.31-50.508,30.152-73.769,30.152
	c-46.307,0-71.077-32.951-59.015-77.968c11.888-44.367,55.005-76.673,102.389-76.673c23.045,0,45.359,10.768,56.365,27.568
	l-38.036,34.244C487.245,425.697,475.813,417.726,464.182,417.726z"/>
<path fill="#8DC63F" d="M616.237,507.324h-56.646l-13.466,21.323h-51.261l104.208-150.981h51.259l20.929,150.981h-53.199
	L616.237,507.324z M613.539,471.57l-3.677-44.152l-27.769,44.152H613.539z"/>
<path fill="#8DC63F" d="M764.395,528.647l-7.586-39.2H738.07l-10.505,39.2h-49.97l40.456-150.981h73.015
	c40.922,0,59.146,19.601,49.912,54.059c-5.887,21.97-18.673,38.339-36.719,47.814l16.563,49.108H764.395z M748.227,451.542h23.045
	c10.771,0,18.806-6.678,21.921-18.308c3.001-11.201-1.512-17.663-12.281-17.663h-23.045L748.227,451.542z"/>
</svg>
